<?xml version="1.0" encoding="UTF-8"?>
<svg xmlns="http://www.w3.org/2000/svg" xmlns:xlink="http://www.w3.org/1999/xlink" width="90pt" height="90pt" viewBox="0 0 90 90" version="1.1">
<g id="surface1">
<path style=" stroke:none;fill-rule:evenodd;fill:rgb(0%,0%,0%);fill-opacity:1;" d="M 0 41.316406 C 0 34.035156 0.898438 26.746094 0.898438 26.746094 C 0.898438 26.746094 1.777344 20.558594 4.476562 17.820312 C 7.898438 14.238281 12.398438 14.347656 14.398438 13.972656 C 21.601562 13.273438 45 13.074219 45 13.074219 C 45 13.074219 63.910156 13.09375 76.5 14.007812 C 78.265625 14.21875 82.101562 14.230469 85.523438 17.820312 C 88.222656 20.554688 89.101562 26.753906 89.101562 26.753906 C 89.101562 26.753906 90 34.03125 90 41.320312 L 90 48.398438 C 90 55.6875 89.101562 62.964844 89.101562 62.964844 C 89.101562 62.964844 88.222656 69.164062 85.523438 71.898438 C 82.101562 75.488281 78.265625 75.5 76.5 75.710938 C 63.910156 76.625 45 76.644531 45 76.644531 C 45 76.644531 21.601562 76.4375 14.398438 75.746094 C 12.398438 75.371094 7.898438 75.480469 4.476562 71.898438 C 1.777344 69.160156 0.898438 62.972656 0.898438 62.972656 C 0.898438 62.972656 0 55.6875 0 48.402344 Z M 35.707031 56.671875 L 35.707031 31.386719 L 60.023438 44.070312 L 35.722656 56.671875 Z M 35.707031 56.671875 "/>
</g>
</svg>
